<?xml version="1.0" encoding="UTF-8"?>
<svg xmlns="http://www.w3.org/2000/svg">
 <g id="nonlogged-button" viewBox="0 0 44 44">
    <path fill-rule="evenodd" clip-rule="evenodd" d="M25 17a3 3 0 11-6 0 3 3 0 016 0zm2 0a5 5 0 11-10 0 5 5 0 0110 0zm-5 15c3.665 0 6.852-1.237 8.495-3.778.52-.757.663-1.768.314-2.637C30.426 24.633 29.514 24 28.27 24H15.73c-1.244 0-2.156.633-2.539 1.585-.349.869-.205 1.88.314 2.637C15.148 30.762 18.335 32 22 32zm6.823-4.874C27.689 28.888 25.296 30 22 30c-3.295 0-5.689-1.112-6.822-2.874a1.1 1.1 0 00-.02-.031c-.17-.242-.195-.555-.111-.764a.441.441 0 01.174-.214c.082-.053.236-.117.509-.117h12.54c.274 0 .427.064.51.117a.441.441 0 01.174.214c.084.209.058.522-.11.764a.786.786 0 00-.021.03z" fill="#0031FF" />
  </g>
</svg>